<svg width="30" height="30" viewBox="0 0 30 30" fill="none" xmlns="http://www.w3.org/2000/svg">
<path d="M10.125 16.0833C9.16082 16.0833 8.21828 15.7974 7.41659 15.2618C6.61491 14.7261 5.99006 13.9647 5.62109 13.0739C5.25211 12.1831 5.15557 11.2029 5.34367 10.2573C5.53177 9.31161 5.99607 8.44297 6.67785 7.76119C7.35964 7.07941 8.22828 6.61511 9.17393 6.42701C10.1196 6.2389 11.0998 6.33545 11.9906 6.70442C12.8814 7.0734 13.6427 7.69824 14.1784 8.49993C14.7141 9.30162 15 10.2442 15 11.2083C14.9986 12.5008 14.4845 13.74 13.5706 14.6539C12.6566 15.5678 11.4175 16.0819 10.125 16.0833ZM10.125 8.5C9.58934 8.5 9.06571 8.65884 8.62033 8.95644C8.17495 9.25403 7.82781 9.67702 7.62283 10.1719C7.41784 10.6668 7.3642 11.2113 7.46871 11.7367C7.57321 12.2621 7.83115 12.7446 8.20992 13.1234C8.58869 13.5022 9.07127 13.7601 9.59663 13.8646C10.122 13.9691 10.6666 13.9155 11.1614 13.7105C11.6563 13.5055 12.0793 13.1584 12.3769 12.713C12.6745 12.2676 12.8333 11.744 12.8333 11.2083C12.8333 10.49 12.548 9.80117 12.0401 9.29325C11.5322 8.78534 10.8433 8.5 10.125 8.5ZM18.25 26.9167V26.375C18.25 24.2201 17.394 22.1535 15.8702 20.6298C14.3465 19.106 12.2799 18.25 10.125 18.25C7.97012 18.25 5.90349 19.106 4.37976 20.6298C2.85602 22.1535 2 24.2201 2 26.375L2 26.9167C2 27.204 2.11414 27.4795 2.3173 27.6827C2.52047 27.8859 2.79602 28 3.08333 28C3.37065 28 3.6462 27.8859 3.84937 27.6827C4.05253 27.4795 4.16667 27.204 4.16667 26.9167V26.375C4.16667 24.7948 4.79442 23.2792 5.91182 22.1618C7.02923 21.0444 8.54475 20.4167 10.125 20.4167C11.7052 20.4167 13.2208 21.0444 14.3382 22.1618C15.4556 23.2792 16.0833 24.7948 16.0833 26.375V26.9167C16.0833 27.204 16.1975 27.4795 16.4006 27.6827C16.6038 27.8859 16.8793 28 17.1667 28C17.454 28 17.7295 27.8859 17.9327 27.6827C18.1359 27.4795 18.25 27.204 18.25 26.9167ZM28 21.5C28 20.0361 27.5762 18.6034 26.7799 17.3751C25.9835 16.1467 24.8486 15.1751 23.5122 14.5775C22.1758 13.9799 20.695 13.7819 19.2486 14.0074C17.8021 14.2329 16.4518 14.8722 15.3608 15.8483C15.2532 15.9427 15.1655 16.0575 15.1027 16.1861C15.0398 16.3147 15.003 16.4544 14.9945 16.5973C14.9859 16.7401 15.0057 16.8833 15.0528 17.0184C15.0999 17.1536 15.1733 17.278 15.2687 17.3847C15.3642 17.4913 15.4798 17.5779 15.609 17.6396C15.7381 17.7013 15.8782 17.7368 16.0211 17.744C16.164 17.7512 16.307 17.7301 16.4417 17.6817C16.5764 17.6334 16.7002 17.5589 16.8059 17.4624C17.5853 16.7654 18.5498 16.3089 19.5829 16.148C20.6161 15.987 21.6737 16.1286 22.6282 16.5555C23.5827 16.9824 24.3932 17.6764 24.9619 18.5538C25.5307 19.4312 25.8333 20.4544 25.8333 21.5C25.8333 21.7873 25.9475 22.0629 26.1506 22.266C26.3538 22.4692 26.6293 22.5833 26.9167 22.5833C27.204 22.5833 27.4795 22.4692 27.6827 22.266C27.8859 22.0629 28 21.7873 28 21.5ZM20.9583 11.75C19.9942 11.75 19.0516 11.4641 18.2499 10.9284C17.4482 10.3927 16.8234 9.63137 16.4544 8.74058C16.0854 7.84979 15.9889 6.86959 16.177 5.92394C16.3651 4.97828 16.8294 4.10964 17.5112 3.42786C18.193 2.74608 19.0616 2.28178 20.0073 2.09367C20.9529 1.90557 21.9331 2.00211 22.8239 2.37109C23.7147 2.74007 24.4761 3.36491 25.0117 4.1666C25.5474 4.96829 25.8333 5.91082 25.8333 6.875C25.8319 8.16749 25.3178 9.40663 24.4039 10.3206C23.49 11.2345 22.2508 11.7486 20.9583 11.75ZM20.9583 4.16667C20.4227 4.16667 19.899 4.32551 19.4537 4.62311C19.0083 4.9207 18.6611 5.34368 18.4562 5.83857C18.2512 6.33345 18.1975 6.87801 18.302 7.40337C18.4065 7.92874 18.6645 8.41132 19.0433 8.79008C19.422 9.16885 19.9046 9.42679 20.43 9.5313C20.9553 9.6358 21.4999 9.58216 21.9948 9.37718C22.4897 9.17219 22.9126 8.82505 23.2102 8.37967C23.5078 7.93429 23.6667 7.41066 23.6667 6.875C23.6667 6.15671 23.3813 5.46783 22.8734 4.95992C22.3655 4.45201 21.6766 4.16667 20.9583 4.16667Z" fill="white"/>
</svg>
