<svg width="30" height="30" viewBox="0 0 30 30" fill="none" xmlns="http://www.w3.org/2000/svg">
<path fill-rule="evenodd" clip-rule="evenodd" d="M6.33333 2H23.6667C24.8159 2 25.9181 2.47346 26.7308 3.31621C27.5435 4.15897 28 5.30199 28 6.49383V19.9753C28 21.1671 27.5435 22.3102 26.7308 23.1529C25.9181 23.9957 24.8159 24.4691 23.6667 24.4691H20.525L15.6966 28.6967C15.501 28.8684 15.253 28.9626 14.9967 28.9626C14.7405 28.9626 14.4925 28.8684 14.2969 28.6967L9.475 24.4691H6.33333C5.18406 24.4691 4.08186 23.9957 3.2692 23.1529C2.45655 22.3102 2 21.1671 2 19.9753V6.49383C2 5.30199 2.45655 4.15897 3.2692 3.31621C4.08186 2.47346 5.18406 2 6.33333 2ZM25.1987 21.5641C25.6051 21.1427 25.8333 20.5712 25.8333 19.9753V6.49383C25.8333 5.89791 25.6051 5.3264 25.1987 4.90502C24.7924 4.48364 24.2413 4.24691 23.6667 4.24691H6.33333C5.7587 4.24691 5.2076 4.48364 4.80127 4.90502C4.39494 5.3264 4.16667 5.89791 4.16667 6.49383V19.9753C4.16667 20.5712 4.39494 21.1427 4.80127 21.5641C5.2076 21.9855 5.7587 22.2222 6.33333 22.2222H9.475C9.98785 22.2219 10.4842 22.4102 10.8758 22.7536L15 26.3678L19.1264 22.7536C19.5174 22.4107 20.0129 22.2224 20.525 22.2222H23.6667C24.2413 22.2222 24.7924 21.9855 25.1987 21.5641ZM15 9.86419H9.58333C9.29602 9.86419 9.02047 9.74583 8.8173 9.53514C8.61414 9.32445 8.5 9.03869 8.5 8.74074C8.5 8.44278 8.61414 8.15702 8.8173 7.94633C9.02047 7.73564 9.29602 7.61728 9.58333 7.61728H15C15.2873 7.61728 15.5629 7.73564 15.766 7.94633C15.9692 8.15702 16.0833 8.44278 16.0833 8.74074C16.0833 9.03869 15.9692 9.32445 15.766 9.53514C15.5629 9.74583 15.2873 9.86419 15 9.86419ZM20.4167 12.1111H9.58333C9.29602 12.1111 9.02047 12.2295 8.8173 12.4402C8.61414 12.6509 8.5 12.9366 8.5 13.2346C8.5 13.5325 8.61414 13.8183 8.8173 14.029C9.02047 14.2397 9.29602 14.358 9.58333 14.358H20.4167C20.704 14.358 20.9795 14.2397 21.1827 14.029C21.3859 13.8183 21.5 13.5325 21.5 13.2346C21.5 12.9366 21.3859 12.6509 21.1827 12.4402C20.9795 12.2295 20.704 12.1111 20.4167 12.1111ZM9.58333 16.6049H20.4167C20.704 16.6049 20.9795 16.7233 21.1827 16.934C21.3859 17.1447 21.5 17.4304 21.5 17.7284C21.5 18.0264 21.3859 18.3121 21.1827 18.5228C20.9795 18.7335 20.704 18.8519 20.4167 18.8519H9.58333C9.29602 18.8519 9.02047 18.7335 8.8173 18.5228C8.61414 18.3121 8.5 18.0264 8.5 17.7284C8.5 17.4304 8.61414 17.1447 8.8173 16.934C9.02047 16.7233 9.29602 16.6049 9.58333 16.6049Z" fill="white"/>
</svg>
