<svg width="30" height="30" viewBox="0 0 30 30" fill="none" xmlns="http://www.w3.org/2000/svg">
<path d="M19.875 2C15.3185 2 11.75 4.14175 11.75 6.875V9.67758C11.2268 9.61583 10.6829 9.58333 10.125 9.58333C5.5685 9.58333 2 11.7251 2 14.4583V23.125C2 25.8583 5.5685 28 10.125 28C13.8159 28 16.859 26.5949 17.8817 24.6081C18.5295 24.7023 19.1968 24.75 19.875 24.75C24.4315 24.75 28 22.6083 28 19.875V6.875C28 4.14175 24.4315 2 19.875 2ZM25.8333 15.5417C25.8333 16.82 23.2853 18.25 19.875 18.25C19.3203 18.25 18.7765 18.2121 18.25 18.1384V15.9891C18.7808 16.0508 19.3247 16.0833 19.875 16.0833C22.2518 16.0833 24.36 15.5005 25.8333 14.5548V15.5417ZM4.16667 17.8048C5.64 18.7505 7.74817 19.3333 10.125 19.3333C12.5018 19.3333 14.61 18.7505 16.0833 17.8048V18.7917C16.0833 20.07 13.5353 21.5 10.125 21.5C6.71467 21.5 4.16667 20.07 4.16667 18.7917V17.8048ZM25.8333 11.2083C25.8333 12.4867 23.2853 13.9167 19.875 13.9167C19.2954 13.9167 18.7267 13.8755 18.1785 13.7953C17.9694 12.8344 17.3118 11.971 16.3303 11.2787C17.3963 11.5821 18.5967 11.75 19.875 11.75C22.2518 11.75 24.36 11.1672 25.8333 10.2214V11.2083ZM19.875 4.16667C23.2853 4.16667 25.8333 5.59667 25.8333 6.875C25.8333 8.15333 23.2853 9.58333 19.875 9.58333C16.4647 9.58333 13.9167 8.15333 13.9167 6.875C13.9167 5.59667 16.4647 4.16667 19.875 4.16667ZM10.125 11.75C13.5353 11.75 16.0833 13.18 16.0833 14.4583C16.0833 15.7367 13.5353 17.1667 10.125 17.1667C6.71467 17.1667 4.16667 15.7367 4.16667 14.4583C4.16667 13.18 6.71467 11.75 10.125 11.75ZM10.125 25.8333C6.71467 25.8333 4.16667 24.4033 4.16667 23.125V22.1381C5.64 23.0838 7.74817 23.6667 10.125 23.6667C12.5018 23.6667 14.61 23.0838 16.0833 22.1381V23.125C16.0833 24.4033 13.5353 25.8333 10.125 25.8333ZM19.875 22.5833C19.3203 22.5833 18.7765 22.5454 18.25 22.4718V20.3224C18.7808 20.3842 19.3247 20.4167 19.875 20.4167C22.2518 20.4167 24.36 19.8338 25.8333 18.8881V19.875C25.8333 21.1533 23.2853 22.5833 19.875 22.5833Z" fill="white"/>
</svg>
