<svg width="30" height="30" viewBox="0 0 30 30" fill="none" xmlns="http://www.w3.org/2000/svg">
<path d="M20.25 27.1613H9.41667C6.42992 27.1613 4 24.8098 4 21.9194V7.24194C4 4.35153 6.42992 2 9.41667 2H20.25C23.2367 2 25.6667 4.35153 25.6667 7.24194V21.9194C25.6667 24.8098 23.2367 27.1613 20.25 27.1613ZM9.41667 4.09677C7.62483 4.09677 6.16667 5.5079 6.16667 7.24194V21.9194C6.16667 23.6534 7.62483 25.0645 9.41667 25.0645H20.25C22.0418 25.0645 23.5 23.6534 23.5 21.9194V7.24194C23.5 5.5079 22.0418 4.09677 20.25 4.09677H9.41667ZM21.3333 8.29032C21.3333 7.71161 20.848 7.24194 20.25 7.24194H15.9167C15.3187 7.24194 14.8333 7.71161 14.8333 8.29032C14.8333 8.86903 15.3187 9.33871 15.9167 9.33871H20.25C20.848 9.33871 21.3333 8.86903 21.3333 8.29032ZM21.3333 14.5806C21.3333 14.0019 20.848 13.5323 20.25 13.5323H15.9167C15.3187 13.5323 14.8333 14.0019 14.8333 14.5806C14.8333 15.1594 15.3187 15.629 15.9167 15.629H20.25C20.848 15.629 21.3333 15.1594 21.3333 14.5806ZM21.3333 20.871C21.3333 20.2923 20.848 19.8226 20.25 19.8226H15.9167C15.3187 19.8226 14.8333 20.2923 14.8333 20.871C14.8333 21.4497 15.3187 21.9194 15.9167 21.9194H20.25C20.848 21.9194 21.3333 21.4497 21.3333 20.871ZM12.6667 9.33871V7.24194C12.6667 6.66323 12.1813 6.19355 11.5833 6.19355H9.41667C8.81867 6.19355 8.33333 6.66323 8.33333 7.24194V9.33871C8.33333 9.91742 8.81867 10.3871 9.41667 10.3871H11.5833C12.1813 10.3871 12.6667 9.91742 12.6667 9.33871ZM12.6667 15.629V13.5323C12.6667 12.9535 12.1813 12.4839 11.5833 12.4839H9.41667C8.81867 12.4839 8.33333 12.9535 8.33333 13.5323V15.629C8.33333 16.2077 8.81867 16.6774 9.41667 16.6774H11.5833C12.1813 16.6774 12.6667 16.2077 12.6667 15.629ZM12.6667 21.9194V19.8226C12.6667 19.2439 12.1813 18.7742 11.5833 18.7742H9.41667C8.81867 18.7742 8.33333 19.2439 8.33333 19.8226V21.9194C8.33333 22.4981 8.81867 22.9677 9.41667 22.9677H11.5833C12.1813 22.9677 12.6667 22.4981 12.6667 21.9194Z" fill="white"/>
</svg>
