<svg width="45" height="45" viewBox="0 0 45 45" fill="none" xmlns="http://www.w3.org/2000/svg">
<path d="M44.9467 37.4651L41.6765 29.8791C41.3584 29.1414 40.7895 28.5645 40.0941 28.2267C40.6816 27.6347 41.0449 26.8225 41.0449 25.9272V8.2767C41.0449 6.46988 39.5664 5 37.749 5H7.25098C5.43357 5 3.95508 6.46988 3.95508 8.2767V25.9272C3.95508 26.8225 4.31842 27.6347 4.90588 28.2267C4.21049 28.5645 3.64157 29.1414 3.3235 29.8791L0.0532617 37.4651C0.0181934 37.5467 0 37.6345 0 37.7233C0 39.5301 1.4785 41 3.2959 41H41.7041C43.5215 41 45 39.5301 45 37.7233C45 37.6345 44.9818 37.5467 44.9467 37.4651ZM5.27344 8.2767C5.27344 7.19259 6.16052 6.31068 7.25098 6.31068H37.749C38.8395 6.31068 39.7266 7.19259 39.7266 8.2767V25.9272C39.7266 27.0113 38.8395 27.8932 37.749 27.8932H7.25098C6.16052 27.8932 5.27344 27.0113 5.27344 25.9272V8.2767ZM4.53524 30.3955C4.84726 29.6716 5.56075 29.2039 6.35291 29.2039H38.6472C39.4393 29.2039 40.1527 29.6716 40.4648 30.3955L43.3412 37.068H1.65885L4.53524 30.3955ZM25.7959 38.3786V39.6893H19.2041V38.3786H25.7959ZM1.43227 38.3786H17.8857V39.6893H3.2959C2.43668 39.6893 1.70446 39.1413 1.43227 38.3786V38.3786ZM41.7041 39.6893H27.1143V38.3786H43.5677C43.2955 39.1413 42.5633 39.6893 41.7041 39.6893Z" fill="black"/>
<path d="M5.22289 34.4466H7.85961C8.22365 34.4466 8.51879 34.1532 8.51879 33.7913C8.51879 33.4293 8.22365 33.1359 7.85961 33.1359H6.22256L6.78752 31.8252H38.2124L38.7774 33.1359H10.4963C10.1323 33.1359 9.83715 33.4293 9.83715 33.7913C9.83715 34.1532 10.1323 34.4466 10.4963 34.4466H39.7771C39.9987 34.4466 40.2055 34.3359 40.3274 34.152C40.4494 33.9681 40.4702 33.7356 40.3829 33.5331L39.2529 30.9118C39.149 30.6709 38.9107 30.5146 38.647 30.5146H6.35281C6.08914 30.5146 5.85078 30.6709 5.74689 30.9118L4.61688 33.5331C4.52961 33.7356 4.55053 33.9682 4.67243 34.152C4.79451 34.3359 5.00132 34.4466 5.22289 34.4466Z" fill="black"/>
</svg>
