<svg width="45" height="46" viewBox="0 0 45 46" fill="none" xmlns="http://www.w3.org/2000/svg">
<path d="M7.47505 36.9276H12.3408V39.7667C12.3408 39.7681 12.3415 39.7695 12.3415 39.7716C12.3443 41.8764 13.849 43.624 15.8159 43.9627V44.7375C15.8159 45.1302 16.1265 45.4476 16.5109 45.4476H27.631C28.0154 45.4476 28.326 45.1302 28.326 44.7375V43.9627C30.2929 43.6233 31.7976 41.8764 31.8004 39.7716C31.8004 39.7695 31.8011 39.7681 31.8011 39.7667V36.9276H36.6668C38.583 36.9276 40.1419 35.3348 40.1419 33.377V3.55059C40.1419 1.5928 38.583 0 36.6668 0H7.47505C5.55891 0 4 1.5928 4 3.55059V33.377C4 35.3348 5.55891 36.9276 7.47505 36.9276ZM13.7315 39.7667C13.7315 39.7652 13.7308 39.7645 13.7308 39.7631V36.9276H14.4258V39.7667C14.4258 39.7695 14.4272 39.7709 14.4272 39.7738C14.43 40.6948 15.011 41.4731 15.8159 41.7663V42.5063C14.6204 42.1882 13.7315 41.0861 13.7315 39.7667ZM17.903 36.9276V40.4761H16.5109C16.5102 40.4761 16.5102 40.4761 16.5095 40.4761C16.1265 40.4753 15.8166 40.1579 15.8166 39.7667C15.8166 39.7652 15.8159 39.7645 15.8159 39.7631V36.9276H17.903ZM19.9866 36.9276V40.4761H19.293V36.9276H19.9866ZM22.766 36.9276V40.4761H21.3766V36.9276H22.766ZM24.8496 36.9276V40.4761H24.156V36.9276H24.8496ZM28.326 36.9276V39.7631C28.326 39.7645 28.3253 39.7652 28.3253 39.7667C28.3253 40.1579 28.0154 40.4753 27.6324 40.4761C27.6317 40.4761 27.6317 40.4761 27.631 40.4761H26.2396V36.9276H28.326ZM17.2059 44.0274V43.3208C17.2059 43.3194 17.2066 43.3187 17.2066 43.3172C17.2066 43.3158 17.2059 43.3151 17.2059 43.3137V41.8963H26.936V43.3137C26.936 43.3151 26.9353 43.3158 26.9353 43.3172C26.9353 43.3187 26.936 43.3194 26.936 43.3208V44.0274H17.2059ZM30.4111 39.7631C30.4111 39.7645 30.4104 39.7652 30.4104 39.7667C30.4104 41.0861 29.5215 42.1882 28.326 42.5056V41.7656C29.1309 41.4724 29.7119 40.6941 29.7147 39.773C29.7147 39.7709 29.7161 39.7695 29.7161 39.7667V36.9276H30.4111V39.7631ZM5.39002 3.55059C5.39002 2.37606 6.3255 1.42024 7.47505 1.42024H36.6668C37.8164 1.42024 38.7519 2.37606 38.7519 3.55059V33.377C38.7519 34.5515 37.8164 35.5074 36.6668 35.5074H31.113C31.1102 35.5074 31.1089 35.5059 31.1061 35.5059C31.1033 35.5059 31.1019 35.5074 31.0991 35.5074H29.028C29.0252 35.5074 29.0238 35.5059 29.021 35.5059C29.0183 35.5059 29.0169 35.5074 29.0141 35.5074H15.1278C15.125 35.5074 15.1236 35.5059 15.1208 35.5059C15.1181 35.5059 15.1167 35.5074 15.1139 35.5074H13.0428C13.04 35.5074 13.0386 35.5059 13.0358 35.5059C13.033 35.5059 13.0317 35.5074 13.0289 35.5074H7.47505C6.3255 35.5074 5.39002 34.5515 5.39002 33.377V3.55059Z" fill="black"/>
<path d="M7.48536 18.3936C7.48119 19.7038 7.6334 21.0225 7.97395 22.3227C8.29922 23.5626 8.78503 24.7286 9.38691 25.8172C9.39733 25.8427 9.41262 25.8626 9.42583 25.8875C10.6907 28.1471 12.5096 30.0424 14.7732 31.3781C16.991 32.6862 19.5097 33.3778 22.0569 33.3778C24.6264 33.3778 27.1083 32.6791 29.276 31.42C29.2927 31.4136 29.3066 31.403 29.3226 31.3952C31.5264 30.1049 33.403 28.2337 34.7096 25.9209C36.0176 23.6073 36.6362 21.0814 36.6521 18.5832C36.6681 18.4866 36.6674 18.3886 36.6452 18.2949C36.6132 15.786 35.9648 13.3226 34.7596 11.1355C34.7381 11.0687 34.7026 11.0105 34.6623 10.9544C33.4266 8.78144 31.6474 6.89323 29.3684 5.54827C27.15 4.24023 24.6313 3.54929 22.084 3.54929C19.5139 3.54929 17.032 4.24804 14.8643 5.50708C14.8497 5.51347 14.8372 5.52271 14.8226 5.52981C12.6166 6.82009 10.7387 8.69197 9.43069 11.007C8.14423 13.2815 7.49579 15.8052 7.48328 18.3638C7.48328 18.3737 7.48606 18.3837 7.48536 18.3936ZM8.92125 19.61C9.57526 19.8699 10.451 20.1263 11.3712 20.1263C12.3449 20.1263 13.3672 19.8394 14.2214 18.9667C15.5447 17.6146 17.2718 18.4589 17.9202 18.8594C17.9404 19.0881 17.9828 19.3104 18.0377 19.5277C16.5865 19.6619 14.7427 20.3841 14.1762 22.5414C13.6876 24.4048 11.383 24.774 10.4454 24.8415C9.97072 23.9347 9.5829 22.9725 9.31602 21.9541C9.11238 21.178 8.98936 20.3947 8.92125 19.61ZM18.0801 10.3977C16.2619 9.89988 15.904 7.54583 15.8345 6.58717C17.4032 5.72651 19.1407 5.18611 20.9505 5.02633C20.4264 6.40183 19.9177 8.74593 21.5795 10.4445C22.9021 11.7966 22.0764 13.5612 21.6844 14.2238C21.4606 14.2451 21.2424 14.287 21.0304 14.3431C20.8984 12.8604 20.1915 10.9757 18.0801 10.3977ZM27.6761 6.25342C26.5488 7.17728 24.9614 8.9469 25.5702 11.2676C26.0546 13.1174 24.47 14.2238 23.8084 14.5959C23.6089 14.5022 23.4011 14.424 23.1856 14.363C23.7979 13.0123 24.1072 11.0197 22.5622 9.43972C21.2271 8.07558 22.0792 5.84439 22.4858 4.98302C24.2796 5.03982 26.0477 5.473 27.6761 6.25342ZM35.2149 17.3149C33.8679 16.7809 31.5793 16.2661 29.9203 17.9619C28.5984 19.3132 26.8699 18.4689 26.2214 18.0691C26.2013 17.8404 26.1596 17.6182 26.1047 17.4016C27.5552 17.2674 29.399 16.5437 29.9661 14.3871C30.4534 12.5287 32.7504 12.1687 33.6914 12.0941C34.5379 13.7139 35.0592 15.4899 35.2149 17.3149ZM34.0188 24.186C33.1152 23.0342 31.3854 21.4152 29.1141 22.0401C27.307 22.535 26.2214 20.9152 25.8559 20.2392C25.9476 20.0361 26.0241 19.8245 26.0831 19.6058C26.694 19.8941 27.4384 20.1171 28.2161 20.1171C29.1217 20.1171 30.0711 19.816 30.9016 18.9674C32.2374 17.6018 34.4205 18.471 35.2635 18.8871C35.2128 20.6802 34.802 22.4818 34.0188 24.186ZM26.0616 26.5301C27.8797 27.0272 28.2384 29.3806 28.3079 30.3399C26.7392 31.1999 25.0017 31.741 23.1919 31.9008C23.7159 30.5246 24.2247 28.1819 22.5629 26.4833C21.2403 25.1312 22.0653 23.3666 22.4573 22.704C22.6811 22.6827 22.8993 22.6408 23.112 22.5847C23.244 24.0675 23.9501 25.9514 26.0616 26.5301ZM16.467 30.673C17.5936 29.7491 19.181 27.9802 18.5729 25.6602C18.0884 23.8104 19.6724 22.704 20.3333 22.3312C20.5328 22.425 20.7406 22.5031 20.956 22.5641C20.3444 23.9148 20.0352 25.9074 21.5802 27.4874C22.916 28.8515 22.0632 31.0827 21.6566 31.9427C19.8628 31.8873 18.0954 31.4541 16.467 30.673ZM22.0708 15.6234C23.604 15.6234 24.8509 16.8974 24.8509 18.4639C24.8509 20.0304 23.604 21.3044 22.0708 21.3044C20.5376 21.3044 19.2908 20.0304 19.2908 18.4639C19.2908 16.8974 20.5376 15.6234 22.0708 15.6234ZM11.2454 26.1722C12.6736 25.9486 14.9108 25.2285 15.519 22.9085C16.0048 21.0573 17.9188 20.9096 18.6736 20.9259C18.8022 21.1105 18.9426 21.2845 19.0969 21.4457C17.907 22.3035 16.6644 23.8708 17.2294 26.0281C17.7159 27.8851 15.9012 29.3784 15.1228 29.9202C13.5716 28.9396 12.2622 27.6663 11.2454 26.1722ZM29.6166 29.5212C29.3962 28.0612 28.688 25.7781 26.4209 25.1582C24.6104 24.6618 24.4651 22.7047 24.4804 21.9343C24.6611 21.8029 24.8321 21.6594 24.9892 21.5011C25.8295 22.7168 27.3633 23.9858 29.4734 23.4106C31.3006 22.9114 32.7608 24.774 33.2876 25.5665C32.3299 27.1472 31.074 28.4844 29.6166 29.5212ZM32.8908 10.7577C31.4618 10.9842 29.2287 11.7057 28.6227 14.0193C28.1369 15.8706 26.2221 16.0175 25.4674 16.0019C25.3388 15.818 25.1984 15.6433 25.0441 15.4821C26.2339 14.6243 27.4773 13.0571 26.9123 10.9004C26.4251 9.04276 28.2397 7.54938 29.0182 7.00685C30.5937 8.00386 31.892 9.28776 32.8908 10.7577ZM14.5258 7.40594C14.7461 8.86523 15.4536 11.149 17.7208 11.7696C19.532 12.266 19.6765 14.2224 19.6612 14.9936C19.4812 15.1249 19.3103 15.2684 19.1532 15.426C18.3136 14.2089 16.7804 12.9385 14.6683 13.5172C12.8467 14.015 11.3823 12.151 10.8548 11.3592C11.8125 9.77916 13.0684 8.442 14.5258 7.40594ZM10.1215 12.7389C11.0244 13.8893 12.7535 15.5084 15.0276 14.8892C16.8409 14.3949 17.9223 16.0133 18.2858 16.6886C18.1934 16.8924 18.1176 17.1047 18.0579 17.3242C16.7359 16.7 14.7857 16.3833 13.2393 17.9626C11.8987 19.3317 9.70453 18.4504 8.86843 18.0364C8.92195 16.2121 9.34729 14.4169 10.1215 12.7389Z" fill="black"/>
</svg>
