<svg width="45" height="45" viewBox="0 0 45 45" fill="none" xmlns="http://www.w3.org/2000/svg">
<path d="M41.8513 34.4269H28.235L28.2046 34.3056L27.7196 34.4269V34.9269H27.8446L28.7918 38.7142H31.1013C31.883 38.7142 32.536 39.3636 32.536 40.1427V41.5714C32.536 42.3505 31.883 43 31.1013 43H13.9028C13.1211 43 12.4694 42.3505 12.4694 41.5714V40.1427C12.4694 39.3636 13.1211 38.7142 13.9028 38.7142L41.8513 34.4269ZM41.8513 34.4269C43.0299 34.4296 44.0117 33.4814 43.9999 32.2853L41.8513 34.4269ZM17.7681 34.5485L17.924 33.9269H17.2831H3.15279C2.24749 33.9269 1.5 33.1811 1.5 32.2853V5.14016C1.5 4.24476 2.24706 3.5 3.15279 3.5H41.8513C42.7558 3.5 43.4999 4.2435 43.4999 5.14016L43.4999 32.2853L43.4999 32.2903C43.5089 33.1981 42.7624 33.929 41.8524 33.9269H41.8513H27.7196H27.0791L27.2345 34.5482L28.3067 38.8355L28.4014 39.2142H28.7918H31.1013C31.6091 39.2142 32.036 39.642 32.036 40.1427V41.5714C32.036 42.0721 31.609 42.5 31.1013 42.5H13.9028C13.3957 42.5 12.9694 42.0728 12.9694 41.5714V40.1427C12.9694 39.6413 13.3957 39.2142 13.9028 39.2142H16.2081H16.5982L16.6931 38.8358L17.7681 34.5485ZM42.5652 29.2165H43.0652V28.7165V5.14016C43.0652 4.45446 42.5353 3.92864 41.8513 3.92864H3.15279C2.474 3.92864 1.93333 4.44933 1.93333 5.14016V28.7165V29.2165H2.43333H42.5652ZM2.43333 29.6452H1.93333V30.1452V32.2853C1.93333 32.9762 2.474 33.4969 3.15279 33.4969C7.45817 33.4969 11.7593 33.4963 16.0591 33.4957C24.6545 33.4945 33.2443 33.4933 41.8511 33.4969H41.8513C42.5352 33.4969 43.0652 32.9711 43.0652 32.2853V30.1452V29.6452H42.5652H2.43333ZM18.7612 33.9269H18.3711L18.2763 34.3053L17.2013 38.5925L17.0454 39.2142H17.6863H27.3192H27.9603L27.8042 38.5924L26.7278 34.3052L26.6328 33.9269H26.2428H18.7612ZM13.9042 39.6427L13.4028 39.6413V40.1427V41.5714V42.0714H13.9028H31.1013H31.6013V41.5714V40.1427V39.6427H31.1013C29.2097 39.6427 27.309 39.6445 25.4034 39.6463C21.5782 39.6499 17.7336 39.6535 13.9042 39.6427Z" fill="black" stroke="black"/>
</svg>
