<svg width="43" height="40" viewBox="0 0 43 40" fill="none" xmlns="http://www.w3.org/2000/svg">
<path d="M40.8513 31.4269H27.235L27.2046 31.3056L26.7196 31.4269V31.9269H26.8446L27.7918 35.7142H30.1013C30.883 35.7142 31.536 36.3636 31.536 37.1427V38.5714C31.536 39.3505 30.883 40 30.1013 40H12.9028C12.1211 40 11.4694 39.3505 11.4694 38.5714V37.1427C11.4694 36.3636 12.1211 35.7142 12.9028 35.7142L40.8513 31.4269ZM40.8513 31.4269C42.0299 31.4296 43.0117 30.4814 42.9999 29.2853L40.8513 31.4269ZM16.7681 31.5485L16.924 30.9269H16.2831H2.15279C1.24749 30.9269 0.5 30.1811 0.5 29.2853V2.14016C0.5 1.24476 1.24706 0.5 2.15279 0.5H40.8513C41.7558 0.5 42.4999 1.2435 42.4999 2.14016L42.4999 29.2853L42.4999 29.2903C42.5089 30.1981 41.7624 30.929 40.8524 30.9269H40.8513H26.7196H26.0791L26.2345 31.5482L27.3067 35.8355L27.4014 36.2142H27.7918H30.1013C30.6091 36.2142 31.036 36.642 31.036 37.1427V38.5714C31.036 39.0721 30.609 39.5 30.1013 39.5H12.9028C12.3957 39.5 11.9694 39.0728 11.9694 38.5714V37.1427C11.9694 36.6413 12.3957 36.2142 12.9028 36.2142H15.2081H15.5982L15.6931 35.8358L16.7681 31.5485ZM41.5652 26.2165H42.0652V25.7165V2.14016C42.0652 1.45446 41.5353 0.928642 40.8513 0.928642H2.15279C1.474 0.928642 0.933329 1.44933 0.933329 2.14016V25.7165V26.2165H1.43333H41.5652ZM1.43333 26.6452H0.933329V27.1452V29.2853C0.933329 29.9762 1.474 30.4969 2.15279 30.4969C6.45817 30.4969 10.7593 30.4963 15.0591 30.4957C23.6545 30.4945 32.2443 30.4933 40.8511 30.4969H40.8513C41.5352 30.4969 42.0652 29.9711 42.0652 29.2853V27.1452V26.6452H41.5652H1.43333ZM17.7612 30.9269H17.3711L17.2763 31.3053L16.2013 35.5925L16.0454 36.2142H16.6863H26.3192H26.9603L26.8042 35.5924L25.7278 31.3052L25.6328 30.9269H25.2428H17.7612ZM12.9042 36.6427L12.4028 36.6413V37.1427V38.5714V39.0714H12.9028H30.1013H30.6013V38.5714V37.1427V36.6427H30.1013C28.2097 36.6427 26.309 36.6445 24.4034 36.6463C20.5782 36.6499 16.7336 36.6535 12.9042 36.6427Z" fill="black" stroke="black"/>
</svg>
