<svg width="45" height="45" viewBox="0 0 45 45" fill="none" xmlns="http://www.w3.org/2000/svg">
<path d="M22.4609 4.7793C22.8088 4.7793 23.0908 4.49729 23.0908 4.14941C23.0908 3.80154 22.8088 3.51953 22.4609 3.51953C22.1131 3.51953 21.8311 3.80154 21.8311 4.14941C21.8311 4.49729 22.1131 4.7793 22.4609 4.7793Z" fill="black"/>
<path d="M35.7725 1H9.14941C7.41279 1 6 2.41279 6 4.14941V40.8506C6 42.5872 7.41279 44 9.14941 44H35.7725C37.5091 44 38.9219 42.5872 38.9219 40.8506V4.14941C38.9219 2.41279 37.5091 1 35.7725 1ZM37.6621 40.8506C37.6621 41.8925 36.8144 42.7402 35.7725 42.7402H9.14941C8.10742 42.7402 7.25977 41.8925 7.25977 40.8506V4.14941C7.25977 3.1075 8.10742 2.25977 9.14941 2.25977H35.7725C36.8144 2.25977 37.6621 3.1075 37.6621 4.14941V40.8506Z" fill="black"/>
<path d="M35.7725 6.03906H9.14941C8.80155 6.03906 8.51953 6.321 8.51953 6.66895V19.9805C8.51953 20.3284 8.80155 20.6104 9.14941 20.6104C9.49728 20.6104 9.7793 20.3284 9.7793 19.9805V7.29883H35.1426V35.1816H9.7793V22.5C9.7793 22.1521 9.49728 21.8701 9.14941 21.8701C8.80155 21.8701 8.51953 22.1521 8.51953 22.5V35.8115C8.51953 36.1595 8.80155 36.4414 9.14941 36.4414H35.7725C36.1204 36.4414 36.4023 36.1595 36.4023 35.8115V6.66895C36.4023 6.321 36.1204 6.03906 35.7725 6.03906Z" fill="black"/>
<path d="M24.9805 37.7012H19.9414C18.8994 37.7012 18.0518 38.5489 18.0518 39.5908C18.0518 40.6327 18.8994 41.4805 19.9414 41.4805H24.9805C26.0224 41.4805 26.8701 40.6327 26.8701 39.5908C26.8701 38.5489 26.0224 37.7012 24.9805 37.7012ZM24.9805 40.2207H19.9414C19.594 40.2207 19.3115 39.9382 19.3115 39.5908C19.3115 39.2435 19.594 38.9609 19.9414 38.9609H24.9805C25.3278 38.9609 25.6104 39.2435 25.6104 39.5908C25.6104 39.9382 25.3278 40.2207 24.9805 40.2207Z" fill="black"/>
</svg>
