<svg width="45" height="45" viewBox="0 0 45 45" fill="none" xmlns="http://www.w3.org/2000/svg">
<path d="M33.5041 1H10.6146C10.2527 1 9.95935 1.29341 9.95935 1.65524V14.3391C9.95935 14.7008 10.2527 14.9942 10.6146 14.9942C10.9765 14.9942 11.2698 14.7008 11.2698 14.339V2.31048H32.8489V14.339C32.8489 14.7008 33.1422 14.9942 33.5041 14.9942C33.866 14.9942 34.1594 14.7008 34.1594 14.339V1.65524C34.1594 1.29341 33.866 1 33.5041 1Z" fill="black"/>
<path d="M33.4399 30.2671H34.3306C34.6926 30.2671 34.9859 29.9737 34.9859 29.6119C34.9859 29.2501 34.6926 28.9567 34.3306 28.9567H9.78793C9.42601 28.9567 9.13269 29.2501 9.13269 29.6119C9.13269 29.9737 9.42601 30.2671 9.78793 30.2671H10.6787L9.57785 40.5329C9.53933 40.8928 9.79965 41.2157 10.1594 41.2543C10.5212 41.2932 10.8421 41.0324 10.8807 40.6727L11.9966 30.2672H32.1218L33.5612 43.6895H10.5573L10.6463 42.8599C10.6849 42.5001 10.4246 42.1771 10.0647 42.1385C9.70589 42.1001 9.38198 42.3603 9.34338 42.7201L9.17664 44.2749C9.15673 44.4597 9.21645 44.6444 9.34071 44.7828C9.46505 44.9211 9.64221 45 9.82808 45H34.2907C34.4765 45 34.6538 44.921 34.778 44.7828C34.9023 44.6445 34.9619 44.4599 34.9421 44.2749L33.4399 30.2671Z" fill="black"/>
<path d="M36.2999 15.7327H4.26852C1.91487 15.7327 0 17.6477 0 20.0013V34.6069C0 36.9606 1.91487 38.8755 4.26852 38.8755H8.30025C8.66217 38.8755 8.95549 38.5821 8.95549 38.2203C8.95549 37.8585 8.66217 37.5651 8.30034 37.5651H4.26852C2.63741 37.5651 1.31048 36.238 1.31048 34.6069V20.0013C1.31048 18.3702 2.6375 17.0432 4.26852 17.0432H36.2999C36.6619 17.0432 36.9552 16.7498 36.9552 16.388C36.9552 16.0261 36.6619 15.7327 36.2999 15.7327Z" fill="black"/>
<path d="M39.8497 15.7327H38.4842C38.1223 15.7327 37.829 16.0261 37.829 16.388C37.829 16.7498 38.1223 17.0432 38.4842 17.0432H39.8497C41.4813 17.0432 42.8087 18.3702 42.8087 20.0013V34.6069C42.8087 36.238 41.4812 37.5651 39.8497 37.5651H35.818C35.456 37.5651 35.1627 37.8585 35.1627 38.2203C35.1627 38.5821 35.456 38.8755 35.818 38.8755H39.8497C42.2039 38.8755 44.1192 36.9607 44.1192 34.6069V20.0013C44.1192 17.6477 42.2039 15.7327 39.8497 15.7327Z" fill="black"/>
<path d="M36.3873 25.867H7.73178C7.36986 25.867 7.07654 26.1604 7.07654 26.5222V33.5114C7.07654 33.8732 7.36986 34.1666 7.73178 34.1666H8.80528C9.1672 34.1666 9.46052 33.8732 9.46052 33.5114C9.46052 33.1496 9.1672 32.8561 8.80528 32.8561H8.38701V27.1774H35.7322V32.8561H35.3139C34.952 32.8561 34.6586 33.1496 34.6586 33.5114C34.6586 33.8732 34.952 34.1666 35.3139 34.1666H36.3874C36.7493 34.1666 37.0426 33.8732 37.0426 33.5114V26.5222C37.0425 26.1603 36.7493 25.867 36.3873 25.867Z" fill="black"/>
<path d="M5.63506 18.4411C4.02126 18.4411 2.70837 19.754 2.70837 21.3678C2.70837 22.9815 4.02126 24.2944 5.63506 24.2944C7.24885 24.2944 8.56174 22.9815 8.56174 21.3678C8.56174 19.754 7.24885 18.4411 5.63506 18.4411ZM5.63506 22.984C4.74388 22.984 4.01885 22.2589 4.01885 21.3678C4.01885 20.4766 4.74388 19.7515 5.63506 19.7515C6.52623 19.7515 7.25126 20.4766 7.25126 21.3678C7.25126 22.2589 6.52623 22.984 5.63506 22.984Z" fill="black"/>
<path d="M12.4495 18.4411C10.8357 18.4411 9.52283 19.754 9.52283 21.3678C9.52283 22.9815 10.8357 24.2944 12.4495 24.2944C14.0633 24.2944 15.3762 22.9815 15.3762 21.3678C15.3763 19.754 14.0633 18.4411 12.4495 18.4411ZM12.4495 22.984C11.5583 22.984 10.8333 22.2589 10.8333 21.3678C10.8333 20.4766 11.5583 19.7515 12.4495 19.7515C13.3407 19.7515 14.0657 20.4766 14.0657 21.3678C14.0657 22.2589 13.3408 22.984 12.4495 22.984Z" fill="black"/>
<path d="M30.5772 39.8453H13.5412C13.1793 39.8453 12.886 40.1387 12.886 40.5005C12.886 40.8623 13.1793 41.1557 13.5412 41.1557H30.5773C30.9392 41.1557 31.2326 40.8623 31.2326 40.5005C31.2326 40.1387 30.9392 39.8453 30.5772 39.8453Z" fill="black"/>
<path d="M30.1623 36.8749H13.9559C13.5941 36.8749 13.3007 37.1683 13.3007 37.5301C13.3007 37.8919 13.594 38.1854 13.9559 38.1854H30.1623C30.5242 38.1854 30.8175 37.8919 30.8175 37.5301C30.8175 37.1683 30.5243 36.8749 30.1623 36.8749Z" fill="black"/>
<path d="M29.8131 33.9044H14.3056C13.9437 33.9044 13.6504 34.1979 13.6504 34.5597C13.6504 34.9215 13.9437 35.2149 14.3056 35.2149H29.8131C30.175 35.2149 30.4683 34.9215 30.4683 34.5597C30.4683 34.1979 30.1751 33.9044 29.8131 33.9044Z" fill="black"/>
</svg>
