<svg width="66" height="66" viewBox="0 0 66 66" fill="none" xmlns="http://www.w3.org/2000/svg">
<path fill-rule="evenodd" clip-rule="evenodd" d="M33 61.875C25.3419 61.875 17.9974 58.8328 12.5823 53.4177C7.16718 48.0026 4.125 40.6581 4.125 33C4.125 25.3419 7.16718 17.9974 12.5823 12.5823C17.9974 7.16718 25.3419 4.125 33 4.125C40.6581 4.125 48.0026 7.16718 53.4177 12.5823C58.8328 17.9974 61.875 25.3419 61.875 33C61.875 40.6581 58.8328 48.0026 53.4177 53.4177C48.0026 58.8328 40.6581 61.875 33 61.875V61.875ZM33 -1.44248e-06C24.2479 -1.82504e-06 15.8542 3.47677 9.66548 9.66547C3.47678 15.8542 1.82504e-06 24.2479 1.44248e-06 33C1.05991e-06 41.7521 3.47678 50.1458 9.66548 56.3345C15.8542 62.5232 24.2479 66 33 66C41.7521 66 50.1458 62.5232 56.3345 56.3345C62.5232 50.1458 66 41.7521 66 33C66 24.2479 62.5232 15.8542 56.3345 9.66547C50.1458 3.47677 41.7521 -1.05991e-06 33 -1.44248e-06V-1.44248e-06ZM47.4375 30.9375C47.9845 30.9375 48.5091 31.1548 48.8959 31.5416C49.2827 31.9284 49.5 32.453 49.5 33C49.5 33.547 49.2827 34.0716 48.8959 34.4584C48.5091 34.8452 47.9845 35.0625 47.4375 35.0625L23.5414 35.0625L32.3978 43.9147C32.785 44.302 33.0026 44.8273 33.0026 45.375C33.0026 45.9227 32.785 46.448 32.3978 46.8352C32.0105 47.2225 31.4852 47.4401 30.9375 47.4401C30.3898 47.4401 29.8645 47.2225 29.4773 46.8352L17.1023 34.4602C16.9102 34.2687 16.7578 34.0411 16.6538 33.7905C16.5498 33.5399 16.4963 33.2713 16.4963 33C16.4963 32.7287 16.5498 32.4601 16.6538 32.2095C16.7578 31.9589 16.9102 31.7313 17.1023 31.5397L29.4773 19.1647C29.8645 18.7775 30.3898 18.5599 30.9375 18.5599C31.4852 18.5599 32.0105 18.7775 32.3978 19.1647C32.785 19.552 33.0026 20.0773 33.0026 20.625C33.0026 21.1727 32.785 21.698 32.3978 22.0852L23.5414 30.9375L47.4375 30.9375Z" fill="#FEC93B"/>
</svg>
