<svg width="60" height="60" viewBox="0 0 60 60" fill="none" xmlns="http://www.w3.org/2000/svg">
<rect width="60" height="60" rx="30" fill="#CBCBCB"/>
<path d="M46 28.5C46.8284 28.5 47.5 29.1716 47.5 30C47.5 30.8284 46.8284 31.5 46 31.5V28.5ZM11.9393 31.0607C11.3536 30.4749 11.3536 29.5251 11.9393 28.9393L21.4853 19.3934C22.0711 18.8076 23.0208 18.8076 23.6066 19.3934C24.1924 19.9792 24.1924 20.9289 23.6066 21.5147L15.1213 30L23.6066 38.4853C24.1924 39.0711 24.1924 40.0208 23.6066 40.6066C23.0208 41.1924 22.0711 41.1924 21.4853 40.6066L11.9393 31.0607ZM46 31.5H13V28.5H46V31.5Z" fill="#F6F6F6"/>
</svg>
