<svg width="30" height="30" viewBox="0 0 30 30" fill="none" xmlns="http://www.w3.org/2000/svg">
<path d="M6.25 0C4.5924 0 3.00269 0.65848 1.83058 1.83058C0.65848 3.00269 0 4.5924 0 6.25V23.75C0 25.4076 0.65848 26.9973 1.83058 28.1694C3.00269 29.3415 4.5924 30 6.25 30H23.75C25.4076 30 26.9973 29.3415 28.1694 28.1694C29.3415 26.9973 30 25.4076 30 23.75V6.25C30 4.5924 29.3415 3.00269 28.1694 1.83058C26.9973 0.65848 25.4076 0 23.75 0H6.25ZM22.135 12.135L13.385 20.885C13.2689 21.0014 13.1309 21.0938 12.9791 21.1568C12.8272 21.2198 12.6644 21.2522 12.5 21.2522C12.3356 21.2522 12.1728 21.2198 12.0209 21.1568C11.8691 21.0938 11.7311 21.0014 11.615 20.885L7.865 17.135C7.74878 17.0188 7.65659 16.8808 7.59369 16.729C7.53079 16.5771 7.49842 16.4144 7.49842 16.25C7.49842 16.0856 7.53079 15.9229 7.59369 15.771C7.65659 15.6192 7.74878 15.4812 7.865 15.365C8.09972 15.1303 8.41806 14.9984 8.75 14.9984C8.91436 14.9984 9.07711 15.0308 9.22896 15.0937C9.38081 15.1566 9.51878 15.2488 9.635 15.365L12.5 18.2325L20.365 10.365C20.5997 10.1303 20.9181 9.99842 21.25 9.99842C21.5819 9.99842 21.9003 10.1303 22.135 10.365C22.3697 10.5997 22.5016 10.9181 22.5016 11.25C22.5016 11.5819 22.3697 11.9003 22.135 12.135Z" fill="#CBCBCB"/>
</svg>
