<svg width="20" height="21" viewBox="0 0 20 21" fill="none" xmlns="http://www.w3.org/2000/svg">
<path fill-rule="evenodd" clip-rule="evenodd" d="M1.25 10.5C1.25 12.8206 2.17187 15.0462 3.81282 16.6872C5.45376 18.3281 7.67936 19.25 10 19.25C12.3206 19.25 14.5462 18.3281 16.1872 16.6872C17.8281 15.0462 18.75 12.8206 18.75 10.5C18.75 8.17936 17.8281 5.95376 16.1872 4.31282C14.5462 2.67187 12.3206 1.75 10 1.75C7.67936 1.75 5.45376 2.67187 3.81282 4.31282C2.17187 5.95376 1.25 8.17936 1.25 10.5ZM20 10.5C20 13.1522 18.9464 15.6957 17.0711 17.5711C15.1957 19.4464 12.6522 20.5 10 20.5C7.34784 20.5 4.8043 19.4464 2.92893 17.5711C1.05357 15.6957 0 13.1522 0 10.5C0 7.84784 1.05357 5.3043 2.92893 3.42893C4.8043 1.55357 7.34784 0.5 10 0.5C12.6522 0.5 15.1957 1.55357 17.0711 3.42893C18.9464 5.3043 20 7.84784 20 10.5ZM10.625 6.125C10.625 5.95924 10.5592 5.80027 10.4419 5.68306C10.3247 5.56585 10.1658 5.5 10 5.5C9.83424 5.5 9.67527 5.56585 9.55806 5.68306C9.44085 5.80027 9.375 5.95924 9.375 6.125V13.3663L6.6925 10.6825C6.57514 10.5651 6.41597 10.4992 6.25 10.4992C6.08403 10.4992 5.92486 10.5651 5.8075 10.6825C5.69014 10.7999 5.62421 10.959 5.62421 11.125C5.62421 11.291 5.69014 11.4501 5.8075 11.5675L9.5575 15.3175C9.61556 15.3757 9.68453 15.4219 9.76046 15.4534C9.83639 15.4849 9.91779 15.5011 10 15.5011C10.0822 15.5011 10.1636 15.4849 10.2395 15.4534C10.3155 15.4219 10.3844 15.3757 10.4425 15.3175L14.1925 11.5675C14.3099 11.4501 14.3758 11.291 14.3758 11.125C14.3758 10.959 14.3099 10.7999 14.1925 10.6825C14.0751 10.5651 13.916 10.4992 13.75 10.4992C13.584 10.4992 13.4249 10.5651 13.3075 10.6825L10.625 13.3663V6.125Z" fill="black"/>
</svg>
