<svg width="40" height="41" viewBox="0 0 40 41" fill="none" xmlns="http://www.w3.org/2000/svg">
<path d="M38.4 0.127441H1.6C0.715 0.127441 0 0.856104 0 1.75801V39.2612C0 40.1631 0.715 40.8918 1.6 40.8918H38.4C39.285 40.8918 40 40.1631 40 39.2612V1.75801C40 0.856104 39.285 0.127441 38.4 0.127441ZM33.78 12.0255H30.585C28.08 12.0255 27.595 13.2383 27.595 15.0217V18.9504H33.575L32.795 25.1007H27.595V40.8918H21.36V25.1058H16.145V18.9504H21.36V14.4153C21.36 9.15164 24.515 6.28286 29.125 6.28286C31.335 6.28286 33.23 6.45101 33.785 6.52744V12.0255H33.78Z" fill="#CBCBCB"/>
</svg>
