<svg width="40" height="41" viewBox="0 0 40 41" fill="none" xmlns="http://www.w3.org/2000/svg">
<path d="M20 15.6561C19.0581 15.6565 18.1375 15.9414 17.3546 16.475C16.5716 17.0085 15.9615 17.7666 15.6013 18.6535C15.2411 19.5404 15.147 20.5162 15.331 21.4576C15.515 22.399 15.9687 23.2636 16.6348 23.9422C17.3009 24.6208 18.1495 25.0829 19.0733 25.27C19.9971 25.4571 20.9546 25.3609 21.8247 24.9935C22.6949 24.6261 23.4386 24.004 23.9618 23.2059C24.485 22.4078 24.7643 21.4695 24.7643 20.5096C24.7633 19.2224 24.261 17.9881 23.3677 17.0781C22.4744 16.168 21.2631 15.6566 20 15.6561ZM31.1348 11.9254C30.8924 11.2993 30.5263 10.7306 30.0592 10.2546C29.5921 9.77857 29.0341 9.40546 28.4196 9.15838C26.5446 8.40406 22.0804 8.5733 20 8.5733C17.9196 8.5733 13.4598 8.39769 11.5795 9.15838C10.965 9.40546 10.407 9.77857 9.93992 10.2546C9.47285 10.7306 9.10674 11.2993 8.86429 11.9254C8.125 13.8363 8.29018 18.3904 8.29018 20.5087C8.29018 22.627 8.125 27.1757 8.86786 29.0929C9.11031 29.719 9.47642 30.2878 9.94349 30.7637C10.4106 31.2397 10.9686 31.6128 11.583 31.8599C13.458 32.6142 17.9223 32.445 20.0036 32.445C22.0848 32.445 26.5429 32.6206 28.4232 31.8599C29.0376 31.6128 29.5957 31.2397 30.0628 30.7637C30.5298 30.2878 30.8959 29.719 31.1384 29.0929C31.8839 27.182 31.7125 22.6279 31.7125 20.5096C31.7125 18.3913 31.8839 13.8435 31.1384 11.9263L31.1348 11.9254ZM20 27.9709C18.552 27.9709 17.1364 27.5333 15.9324 26.7135C14.7284 25.8936 13.79 24.7283 13.2359 23.3649C12.6817 22.0016 12.5368 20.5013 12.8193 19.054C13.1018 17.6066 13.799 16.2771 14.823 15.2337C15.8469 14.1902 17.1514 13.4795 18.5717 13.1916C19.9919 12.9037 21.464 13.0515 22.8018 13.6162C24.1396 14.181 25.2831 15.1373 26.0875 16.3643C26.892 17.5913 27.3214 19.0339 27.3214 20.5096C27.3226 21.4898 27.134 22.4606 26.7665 23.3664C26.399 24.2721 25.8597 25.0951 25.1797 25.7882C24.4996 26.4813 23.692 27.0309 22.8032 27.4054C21.9144 27.78 20.9618 27.9721 20 27.9709ZM27.6232 14.4768C27.2852 14.477 26.9547 14.375 26.6735 14.1838C26.3924 13.9925 26.1732 13.7206 26.0437 13.4024C25.9143 13.0842 25.8803 12.734 25.9461 12.3961C26.012 12.0582 26.1746 11.7478 26.4136 11.5041C26.6526 11.2604 26.9571 11.0945 27.2886 11.0272C27.6201 10.9599 27.9638 10.9944 28.2761 11.1262C28.5884 11.258 28.8554 11.4812 29.0432 11.7676C29.231 12.054 29.3313 12.3908 29.3313 12.7353C29.3322 12.964 29.2888 13.1907 29.2036 13.4024C29.1184 13.614 28.993 13.8064 28.8346 13.9686C28.6763 14.1307 28.488 14.2594 28.2808 14.3472C28.0735 14.4351 27.8513 14.4804 27.6268 14.4805L27.6232 14.4768ZM35.7143 0.127441H4.28571C3.14907 0.127441 2.05898 0.587599 1.25526 1.40668C0.451529 2.22577 0 3.33669 0 4.49505L0 36.5242C0 37.6825 0.451529 38.7934 1.25526 39.6125C2.05898 40.4316 3.14907 40.8918 4.28571 40.8918H35.7143C36.8509 40.8918 37.941 40.4316 38.7447 39.6125C39.5485 38.7934 40 37.6825 40 36.5242V4.49505C40 3.33669 39.5485 2.22577 38.7447 1.40668C37.941 0.587599 36.8509 0.127441 35.7143 0.127441ZM34.1857 26.5151C34.0705 28.8472 33.5482 30.9136 31.8777 32.6115C30.2071 34.3094 28.1813 34.8526 25.8955 34.9637C23.5375 35.0992 16.4679 35.0992 14.1098 34.9637C11.8214 34.8463 9.80089 34.3131 8.12768 32.6115C6.45446 30.91 5.92857 28.8426 5.81964 26.5151C5.68661 24.1111 5.68661 16.9054 5.81964 14.5041C5.93482 12.172 6.45089 10.1056 8.12768 8.4077C9.80446 6.70979 11.8304 6.17294 14.1098 6.06193C16.4679 5.92635 23.5375 5.92635 25.8955 6.06193C28.1839 6.17931 30.2107 6.71252 31.8777 8.41407C33.5446 10.1156 34.0768 12.1829 34.1857 14.5151C34.3188 16.91 34.3188 24.1092 34.1857 26.5151Z" fill="#CBCBCB"/>
</svg>
