<svg width="40" height="41" viewBox="0 0 40 41" fill="none" xmlns="http://www.w3.org/2000/svg">
<path d="M0 3.06623C0 1.45349 1.315 0.146484 2.9375 0.146484H37.0625C38.685 0.146484 40 1.45349 40 3.06623V37.9911C40 39.6038 38.685 40.9108 37.0625 40.9108H2.9375C1.315 40.9108 0 39.6038 0 37.9911V3.06623ZM12.3575 34.2713V15.8637H6.355V34.2713H12.3575ZM9.3575 13.349C11.45 13.349 12.7525 11.9376 12.7525 10.1694C12.715 8.36304 11.4525 6.9898 9.3975 6.9898C7.3425 6.9898 6 8.36559 6 10.1694C6 11.9376 7.3025 13.349 9.3175 13.349H9.3575ZM21.6275 34.2713V23.9911C21.6275 23.4408 21.6675 22.8904 21.8275 22.4981C22.26 21.4 23.2475 20.2611 24.9075 20.2611C27.08 20.2611 27.9475 21.9478 27.9475 24.4242V34.2713H33.95V23.7134C33.95 18.0573 30.99 15.428 27.04 15.428C23.855 15.428 22.4275 17.2115 21.6275 18.4675V18.5312H21.5875C21.6008 18.5099 21.6141 18.4887 21.6275 18.4675V15.8637H15.6275C15.7025 17.5911 15.6275 34.2713 15.6275 34.2713H21.6275Z" fill="#CBCBCB"/>
</svg>
