<svg width="23" height="30" viewBox="0 0 23 30" fill="none" xmlns="http://www.w3.org/2000/svg">
<path d="M3.78118 0.658222L5.50282 0.142216C7.11725 -0.340789 8.84208 0.44072 9.53329 1.96774L10.9093 5.00977C11.5077 6.33429 11.1749 7.89281 10.0869 8.86182L7.05485 11.5589C7.24205 13.1729 7.82126 14.7614 8.79088 16.3244C9.71164 17.8366 10.9467 19.1603 12.4229 20.217L16.0646 19.0769C17.4438 18.6464 18.9479 19.1429 19.7927 20.3085L21.7655 23.0235C22.7495 24.3795 22.5719 26.2485 21.3511 27.3975L20.0439 28.6291C18.7415 29.8546 16.8806 30.3001 15.1606 29.7961C11.0965 28.6081 7.36365 25.0815 3.95559 19.2164C0.542723 13.3424 -0.662099 8.35631 0.34272 4.26426C0.765127 2.54224 2.07235 1.16973 3.78118 0.658222Z" fill="#FEC93B"/>
</svg>
