<svg width="39" height="41" viewBox="0 0 39 41" fill="none" xmlns="http://www.w3.org/2000/svg">
<path d="M18.4736 0.0059667C15.176 0.0456903 8.0864 0.586445 4.12108 4.21667C1.17148 7.13316 0.141625 11.4451 0.0209186 16.777C-0.0792418 22.0898 -0.199948 32.0668 9.43728 34.7834V38.9211C9.43728 38.9211 9.37693 40.5766 10.4736 40.9162C11.8244 41.3429 12.5936 40.0692 13.8777 38.7006L16.2726 35.9982C22.8665 36.5453 27.9169 35.2844 28.4986 35.0973C29.8366 34.6706 37.3731 33.7096 38.6045 23.7312C39.8681 13.4262 37.9894 6.93326 34.5981 3.99627H34.5775C33.5541 3.05572 29.4411 0.0649115 20.252 0.0315949C20.252 0.0315949 19.5702 -0.0145358 18.4736 0.00468529V0.0059667ZM18.5866 2.90323C19.5227 2.89682 20.0915 2.93655 20.0915 2.93655C27.8694 2.95705 31.5817 5.29306 32.4575 6.07984C35.3133 8.5222 36.7849 14.3757 35.7076 22.9791C34.6841 31.321 28.5718 31.849 27.4405 32.209C26.9589 32.3628 22.5108 33.4571 16.9069 33.097C16.9069 33.097 12.7336 38.1227 11.4289 39.417C11.2222 39.6438 10.9808 39.7104 10.8267 39.6771C10.6058 39.6233 10.539 39.3503 10.5519 38.9762L10.5917 32.1091C2.41835 29.8538 2.89989 21.344 2.98721 16.8988C3.08737 12.4536 3.92332 8.81693 6.41192 6.35406C9.76216 3.33122 15.7821 2.92373 18.584 2.90323H18.5866ZM19.2029 7.34715C19.1357 7.34648 19.0689 7.35909 19.0066 7.38428C18.9442 7.40946 18.8874 7.44671 18.8396 7.49388C18.7917 7.54105 18.7537 7.59721 18.7277 7.65912C18.7016 7.72102 18.6882 7.78746 18.688 7.85459C18.688 8.14163 18.9217 8.36844 19.2029 8.36844C20.4761 8.34427 21.7415 8.57188 22.9261 9.03813C24.1107 9.50438 25.1911 10.2001 26.105 11.085C27.9708 12.8931 28.88 15.3226 28.9146 18.4992C28.9146 18.7799 29.1419 19.0131 29.4296 19.0131V18.9926C29.5651 18.9929 29.6953 18.9398 29.7918 18.8447C29.8882 18.7497 29.9431 18.6204 29.9445 18.4852C30.0068 16.9899 29.7639 15.4977 29.2303 14.0991C28.6968 12.7005 27.8838 11.4248 26.8408 10.3495C24.8081 8.36715 22.2321 7.34587 19.2029 7.34587V7.34715ZM12.4344 8.5222C12.0709 8.46921 11.7002 8.54202 11.384 8.72851H11.357C10.6229 9.15796 9.96147 9.70074 9.39748 10.3367C8.92878 10.8774 8.67452 11.4246 8.60775 11.9513C8.56794 12.2652 8.59491 12.5791 8.68865 12.879L8.72203 12.8995C9.2498 14.4474 9.93937 15.9364 10.7817 17.3383C11.8668 19.3078 13.2022 21.1292 14.7548 22.7574L14.801 22.824L14.8742 22.8778L14.9204 22.9316L14.9744 22.9778C16.6119 24.5316 18.4416 25.8704 20.419 26.9617C22.679 28.1893 24.0504 28.7697 24.8735 29.0106V29.0235C25.115 29.0965 25.3345 29.1298 25.5554 29.1298C26.2569 29.0785 26.921 28.7943 27.4418 28.3225C28.0761 27.7596 28.614 27.0969 29.0341 26.3607V26.3479C29.4283 25.6072 29.2947 24.9063 28.7259 24.4322C27.5866 23.4384 26.3547 22.5558 25.0469 21.7963C24.1711 21.3222 23.2812 21.6092 22.9204 22.0898L22.1512 23.0572C21.757 23.5377 21.0405 23.4711 21.0405 23.4711L21.0199 23.4839C15.6768 22.1218 14.2514 16.7232 14.2514 16.7232C14.2514 16.7232 14.1846 15.989 14.679 15.6148L15.6421 14.8408C16.1031 14.4667 16.4241 13.5799 15.9297 12.7047C15.1739 11.3979 14.2913 10.1682 13.2947 9.03349C13.0769 8.76597 12.7712 8.58395 12.4318 8.51964L12.4344 8.5222ZM20.0915 10.0445C19.4097 10.0445 19.4097 11.0722 20.0979 11.0722C20.9458 11.0859 21.7827 11.2663 22.5607 11.6029C23.3387 11.9395 24.0426 12.4258 24.6321 13.034C25.17 13.6261 25.5832 14.3198 25.8475 15.0741C26.1117 15.8284 26.2216 16.628 26.1705 17.4254C26.1728 17.5604 26.228 17.6891 26.3243 17.7839C26.4205 17.8787 26.5502 17.9322 26.6854 17.9329L26.706 17.9598C26.8422 17.9588 26.9726 17.9043 27.069 17.8082C27.1653 17.712 27.2199 17.5819 27.2209 17.4459C27.2671 15.4098 26.6328 13.7017 25.3885 12.3331C24.1378 10.9646 22.3926 10.197 20.1647 10.0445H20.0915ZM20.9352 12.8072C20.2328 12.7867 20.2058 13.8349 20.9018 13.8554C22.5943 13.9426 23.4161 14.796 23.5239 16.5515C23.5263 16.6848 23.5808 16.8118 23.6759 16.9055C23.7709 16.9991 23.8989 17.0519 24.0325 17.0525H24.053C24.1217 17.0496 24.1891 17.033 24.2512 17.0038C24.3134 16.9746 24.3691 16.9333 24.4152 16.8824C24.4612 16.8315 24.4966 16.7719 24.5193 16.7072C24.542 16.6424 24.5515 16.5738 24.5474 16.5054C24.4267 14.2168 23.176 12.9277 20.9557 12.8085H20.9352V12.8072Z" fill="#9747FF"/>
</svg>
